<svg width="512" height="512" viewBox="0 0 512 512" fill="none" xmlns="http://www.w3.org/2000/svg">
<rect width="512" height="512" rx="256" fill="#0D0D0D"/>
<path d="M179.824 268.709L181.06 318.112L169.402 367.311L158.45 416.102C158.138 417.409 159.38 417.463 160.039 417.327C162.218 415.762 166.823 412.387 167.812 411.407C168.801 410.427 173.288 397.797 175.407 391.605L190.069 357.716L211.796 311.988C234.937 267.892 283.514 187.662 284.397 185.621C285.247 183.656 284.22 183.057 282.807 183.579C259.961 192.017 213.598 208.689 211.62 209.506C209.641 210.323 208.145 212.568 207.557 213.385C199.431 227.471 183.533 256.051 181.767 260.339C180.014 264.592 179.529 267.552 179.824 268.709Z" fill="#CCFF00" stroke="black"/>
<path d="M195.722 371.066L186.89 393.726C186.325 395.033 187.479 395.291 187.95 395.155L192.189 392.297C205.614 383.859 232.676 366.86 233.524 366.37C234.372 365.88 235.644 363.989 236.173 363.104C237.469 360.45 240.201 354.775 240.766 353.305C241.331 351.835 240.531 351.332 240.06 351.264C226.811 356.367 200.385 367.391 198.548 368.208C196.711 369.024 195.899 370.453 195.722 371.066Z" fill="white"/>
<path d="M203.494 353.305L303.298 167.327C303.473 167.001 303.136 166.783 302.945 166.715L267.793 179.168L237.587 189.988C232.523 191.825 221.971 195.581 220.275 195.908C218.58 196.235 219.098 194.683 219.569 193.866L221.512 191.213C236.409 172.771 267.581 134.051 273.092 126.702C278.603 119.353 285.516 116.563 288.283 116.087L314.78 105.879C322.906 103.566 340.641 98.4482 346.576 96.4884C352.511 94.5286 353.877 98.9381 353.818 101.388C351.581 123.504 347 168.797 346.576 173.043C346.152 177.29 344.633 181.209 343.926 182.638C333.916 202.304 313.508 242.412 311.954 245.516C310.399 248.619 308.833 249.666 308.244 249.803L290.05 253.886C293.171 256.676 299.695 262.541 300.825 263.685C301.956 264.828 301.767 266.883 301.532 267.768C293.465 284.303 276.943 318.151 275.388 321.254C273.834 324.357 271.443 325.813 270.442 326.153C249.363 335.476 206.674 354.326 204.554 355.142C202.434 355.959 202.964 354.258 203.494 353.305Z" fill="white"/>
<path d="M195.722 371.066L186.89 393.726C186.325 395.033 187.479 395.291 187.95 395.155L192.189 392.297C205.614 383.859 232.676 366.86 233.524 366.37C234.372 365.88 235.644 363.989 236.173 363.104C237.469 360.45 240.201 354.775 240.766 353.305C241.331 351.835 240.531 351.332 240.06 351.264C226.811 356.367 200.385 367.391 198.548 368.208C196.711 369.024 195.899 370.453 195.722 371.066Z" stroke="black"/>
<path d="M203.494 353.305L303.298 167.327C303.473 167.001 303.136 166.783 302.945 166.715L267.793 179.168L237.587 189.988C232.523 191.825 221.971 195.581 220.275 195.908C218.58 196.235 219.098 194.683 219.569 193.866L221.512 191.213C236.409 172.771 267.581 134.051 273.092 126.702C278.603 119.353 285.516 116.563 288.283 116.087L314.78 105.879C322.906 103.566 340.641 98.4482 346.576 96.4884C352.511 94.5286 353.877 98.9381 353.818 101.388C351.581 123.504 347 168.797 346.576 173.043C346.152 177.29 344.633 181.209 343.926 182.638C333.916 202.304 313.508 242.412 311.954 245.516C310.399 248.619 308.833 249.666 308.244 249.803L290.05 253.886C293.171 256.676 299.695 262.541 300.825 263.685C301.956 264.828 301.767 266.883 301.532 267.768C293.465 284.303 276.943 318.151 275.388 321.254C273.834 324.357 271.443 325.813 270.442 326.153C249.363 335.476 206.674 354.326 204.554 355.142C202.434 355.959 202.964 354.258 203.494 353.305Z" stroke="black"/>
</svg>
